<?xml version="1.0" encoding="UTF-8" standalone="no"?>
<svg
   xmlns:dc="http://purl.org/dc/elements/1.1/"
   xmlns:cc="http://creativecommons.org/ns#"
   xmlns:rdf="http://www.w3.org/1999/02/22-rdf-syntax-ns#"
   xmlns:svg="http://www.w3.org/2000/svg"
   xmlns="http://www.w3.org/2000/svg"
   xmlns:sodipodi="http://sodipodi.sourceforge.net/DTD/sodipodi-0.dtd"
   xmlns:inkscape="http://www.inkscape.org/namespaces/inkscape"
   viewBox="0 0 400 400"
   version="1.1"
   id="svg26"
   sodipodi:docname="green-304700.svg"
   inkscape:version=""
   width="400"
   height="400">
  <metadata
     id="metadata32">
    <rdf:RDF>
      <cc:Work
         rdf:about="">
        <dc:format>image/svg+xml</dc:format>
        <dc:type
           rdf:resource="http://purl.org/dc/dcmitype/StillImage" />
        <dc:title></dc:title>
      </cc:Work>
    </rdf:RDF>
  </metadata>
  <defs
     id="defs30">
    <inkscape:perspective
       sodipodi:type="inkscape:persp3d"
       inkscape:vp_x="0 : 240 : 1"
       inkscape:vp_y="0 : 1000 : 0"
       inkscape:vp_z="640 : 240 : 1"
       inkscape:persp3d-origin="320 : 160 : 1"
       id="perspective3737" />
  </defs>
  <sodipodi:namedview
     pagecolor="#ffffff"
     bordercolor="#666666"
     borderopacity="1"
     objecttolerance="10"
     gridtolerance="10"
     guidetolerance="10"
     inkscape:pageopacity="0"
     inkscape:pageshadow="2"
     inkscape:window-width="1534"
     inkscape:window-height="836"
     id="namedview28"
     showgrid="false"
     inkscape:snap-global="false"
     inkscape:zoom="1.13"
     inkscape:cx="320"
     inkscape:cy="264.91759"
     inkscape:window-x="66"
     inkscape:window-y="27"
     inkscape:window-maximized="1"
     inkscape:current-layer="svg26" />
  <path
     d="m 202.87765,25.352 0.002,0.008 M 96.985236,108.83431 c 0,0 -12.19122,-8.12729 -17.42359,27.10169 -6.169,25.899 -3.11,51.061 5.149,76 4.172,12.599 8.646,25.294 16.765004,36 18.661,24.607 41.772,39.984 70.402,50.218 18.75,6.702 39.13,8.936 59,6.496 13.438,-1.651 28.411,-3.008 41,-8.168 49.574,-20.318 83.2147,-71.63282 66.72987,-88.29931 z"
     id="path2"
     inkscape:connector-curvature="0"
     style="fill:#007f3f"
     sodipodi:nodetypes="ccccccccccc" />
  <path
     d="m 206.78965,30.426 v 0.004 m -100.00417,86.90635 c -13.631584,-5.24424 -23.876504,38.52268 -16.806514,77.60425 6.53826,36.14232 32.886604,61.77373 54.974454,78.02342 27.699,18.349 76.43833,24.11382 102.80798,16.65245 53.33202,-19.10449 106.47993,-71.01959 77.98485,-83.54054 0,0 -212.67466,-86.32123 -218.96077,-88.73958 z"
     id="path4"
     inkscape:connector-curvature="0"
     style="fill:#5fbf00"
     sodipodi:nodetypes="ccsscccs" />
  <path
     d="M 212.55007,58.60856 214.87965,53.37 m -76.93349,82.23302 c -36.87141,-11.36997 -53.099864,9.0737 -31.58786,59.0567 7.44703,19.40384 35.46735,58.71328 57.80635,72.16628 22.689,13.664 51.391,13.837 76.715,10.953 16.382,-1.865 36.67498,-12.12221 49.03698,-22.39821 23.512,-19.545 36.30714,-29.70495 18.8893,-51.13963 z"
     id="path6"
     inkscape:connector-curvature="0"
     style="fill:#d4ffaa"
     sodipodi:nodetypes="ccccccccc" />
  <g
     id="g24"
     style="fill:#5fbf00"
     transform="translate(-92.920354,-80)">
    <path
       d="m 219.82,218.51 c -9.355,2.719 -10.732,15.407 -10.875,23.427 -0.31601,17.695 0.63901,36.686 23.86,30.461 14.673,-3.933 30.788,-9.735 44,-17.165 3.764,-2.117 11.936,-4.604 13.029,-9.424 1.514,-6.67 -10.85,-9.067 -15.029,-11.141 -9.49,-4.711 -19.211,-7.011 -29,-10.718 -7.546,-2.857 -17.602,-7.875 -25.985,-5.44 z"
       id="path16"
       inkscape:connector-curvature="0"
       style="opacity:0.6" />
    <path
       d="m 292.8,255.79 c -5.644,0.71301 -10.986,5.082 -16,7.47 -14.697,7 -39.235,16.513 -47.308,31.719 -7.93,14.935 14.365,38.053 30.222,36.436 6.36,-0.64902 10.888,-10.56 13.359,-15.476 7.61,-15.142 16.216,-29.736 23.636,-45 2.303,-4.737 5.394,-16.323 -3.909,-15.149 z"
       id="path18"
       inkscape:connector-curvature="0"
       style="opacity:0.6" />
    <path
       d="m 325.56,259.97 c -5.392,4.499 5.733,25.987 8.134,30.971 5.125,10.637 9.628,21.419 14.829,32 2.1,4.273 3.694,10.194 9.319,10.812 7.257,0.79599 14.555,-6.923 19.676,-11.179 6.2979,-5.233 23.364,-22.322 19.542,-31.529 -4.209,-10.141 -25.087,-16.322 -34.257,-20.768 -8.919,-4.325 -17.31,-8.046 -27,-10.001 -2.845,-0.57404 -7.649,-2.471 -10.243,-0.30603 z"
       id="path20"
       inkscape:connector-curvature="0"
       style="opacity:0.6" />
    <path
       d="m 308.86,266.08 c -8.38,3.594 -12.086,24.141 -14.781,31.864 -3.787,10.853 -16.079,30.002 -12.689,41.907 1.45,5.09 7.918,6.592 12.412,7.712 11.744,2.927 29.508,4.959 40.895,-0.46201 7.178,-3.418 5.702,-11.07 4.039,-17.161 -4.305,-15.769 -10.064,-33.066 -16.759,-47.996 -2.092,-4.665 -5.197,-19.261 -13.117,-15.864 z"
       id="path22"
       inkscape:connector-curvature="0"
       style="opacity:0.6" />
  </g>
</svg>
